<svg preserveAspectRatio="none" overflow="visible" style="display: block;" width="28.125" height="29" viewBox="0 0 28.125 29" fill="none" xmlns="http://www.w3.org/2000/svg">
<g id="Group 219">
<path id="Vector 28" d="M18 6.839V4.34096C18 2.63348 15.9983 1.71123 14.7004 2.82074L6.56123 9.77872C6.19903 10.0884 5.73816 10.2585 5.26164 10.2585H3C1.89543 10.2585 1 11.1539 1 12.2585V16.7415C1 17.8461 1.89543 18.7415 3 18.7415H5.26164C5.73816 18.7415 6.19903 18.9116 6.56123 19.2213L14.7004 26.1793C15.9983 27.2888 18 26.3665 18 24.659V23.4433" stroke="white" stroke-width="2"/>
<path id="Ellipse 2" d="M18 10C19.8342 11.1974 21 12.9929 21 15C21 17.0071 19.8342 18.8026 18 20" stroke="white" stroke-width="2"/>
<path id="Ellipse 3" d="M22.125 6C25.1819 8.15524 27.125 11.3872 27.125 15C27.125 18.6128 25.1819 21.8448 22.125 24" stroke="white" stroke-width="2"/>
</g>
</svg>
