<svg width="15" height="10" viewBox="0 0 15 10" fill="none" xmlns="http://www.w3.org/2000/svg">
<path d="M14.7021 7.02695C14.7021 5.88703 13.8862 4.98131 12.2857 4.71585C13.3841 4.57531 14.6079 3.90387 14.6079 2.54533V2.49848C14.6079 1.18678 13.745 0 10.1047 0H0V9.69718H5.14646V6.57409H8.06498C9.21039 6.57409 9.52419 6.98013 9.52419 8.02637V9.07257C9.52419 9.47858 9.66535 9.61912 9.75949 9.71281H15.0002V9.57228C14.8119 9.33805 14.7335 9.16625 14.7335 8.61971V7.02695H14.7021ZM8.37872 4.0444H5.14646V2.42038H8.37872C9.2417 2.42038 9.50849 2.68587 9.50849 3.18557C9.50849 3.68526 9.2417 4.0444 8.37872 4.0444Z" fill="black"/>
</svg>
