<svg width="141" height="108" viewBox="0 0 141 108" fill="none" xmlns="http://www.w3.org/2000/svg">
<path d="M76.3424 108H63.5953C6.02334 108 0 84.607 0 71.0194V69.6186H43.7043C44.1245 75.2217 47.0661 84.3268 69.7587 84.3268H71.0194C93.2918 84.3268 96.5136 79.5642 96.5136 74.5214V74.3813C96.5136 69.0583 93.8521 65.6965 72 64.9961L52.6692 64.4358C12.3268 63.3151 1.54086 49.1673 1.54086 33.0583V31.7976C1.54086 14.8482 12.8872 0 61.4941 0H73.9611C125.51 0 137.276 16.3891 137.276 32.9183V34.0389H93.9922C93.5719 30.2568 91.3307 22.9727 68.7782 22.9727H67.3774C46.5058 22.9727 44.4046 26.6148 44.4046 30.677V30.8171C44.4046 35.0194 47.4864 38.3813 67.0972 38.8015L85.8677 39.2218C125.51 40.3424 140.918 49.5875 140.918 70.5992V72.5603C140.918 90.07 131.113 108 76.3424 108Z" fill="black"/>
</svg>
